name rise31.4854peak64.571fall78.6902.mot
datacolumns 19
datarows 21
range 20.26326000000000 20.29659100000000
endheader
time	ground_force1_vx	ground_force1_vy	ground_force1_vz	ground_force1_px	ground_force1_py	ground_force1_pz	ground_force2_vx	ground_force2_vy	ground_force2_vz	ground_force2_px	ground_force2_py	ground_force2_pz	ground_torque1_x	ground_torque1_y	ground_torque1_z	ground_torque2_x	ground_torque2_y	ground_torque2_z	
20.26326000000000	62.51916400000000	747.11257200000000	55.58306900000000	0.31793300000000	0.00000000000000	0.10308000000000	0.00000000000000	0.00000000000000	0.00000000000000	0.00000000000000	0.00000000000000	0.00000000000000	0.00000000000000	21.85155200000000	0.00000000000000	0.00000000000000	0.00000000000000	0.00000000000000	
20.26492700000000	61.81817600000000	750.31643699999995	55.73303800000000	0.31685900000000	0.00000000000000	0.10309000000000	0.00000000000000	0.00000000000000	0.00000000000000	0.00000000000000	0.00000000000000	0.00000000000000	0.00000000000000	21.93947600000000	0.00000000000000	0.00000000000000	0.00000000000000	0.00000000000000	
20.26659400000000	61.12657900000000	753.43232899999998	55.88829800000000	0.31584300000000	0.00000000000000	0.10309900000000	0.00000000000000	0.00000000000000	0.00000000000000	0.00000000000000	0.00000000000000	0.00000000000000	0.00000000000000	22.03297500000000	0.00000000000000	0.00000000000000	0.00000000000000	0.00000000000000	
20.26826000000000	60.44475600000000	756.45582800000000	56.04863500000000	0.31488400000000	0.00000000000000	0.10310700000000	0.00000000000000	0.00000000000000	0.00000000000000	0.00000000000000	0.00000000000000	0.00000000000000	0.00000000000000	22.13183600000000	0.00000000000000	0.00000000000000	0.00000000000000	0.00000000000000	
20.26992700000000	59.77297300000000	759.38256400000000	56.21374000000000	0.31398200000000	0.00000000000000	0.10311400000000	0.00000000000000	0.00000000000000	0.00000000000000	0.00000000000000	0.00000000000000	0.00000000000000	0.00000000000000	22.23579000000000	0.00000000000000	0.00000000000000	0.00000000000000	0.00000000000000	
20.27159600000000	59.11138400000000	762.20823700000005	56.38320700000000	0.31313300000000	0.00000000000000	0.10311900000000	0.00000000000000	0.00000000000000	0.00000000000000	0.00000000000000	0.00000000000000	0.00000000000000	0.00000000000000	22.34450900000000	0.00000000000000	0.00000000000000	0.00000000000000	0.00000000000000	
20.27326000000000	58.46003900000000	764.92864199999997	56.55654200000000	0.31233600000000	0.00000000000000	0.10312300000000	0.00000000000000	0.00000000000000	0.00000000000000	0.00000000000000	0.00000000000000	0.00000000000000	0.00000000000000	22.45761100000000	0.00000000000000	0.00000000000000	0.00000000000000	0.00000000000000	
20.27492500000000	57.81888100000000	767.53969400000005	56.73316800000000	0.31158900000000	0.00000000000000	0.10312700000000	0.00000000000000	0.00000000000000	0.00000000000000	0.00000000000000	0.00000000000000	0.00000000000000	0.00000000000000	22.57466600000000	0.00000000000000	0.00000000000000	0.00000000000000	0.00000000000000	
20.27658800000000	57.18775900000000	770.03745300000003	56.91243400000000	0.31088900000000	0.00000000000000	0.10312900000000	0.00000000000000	0.00000000000000	0.00000000000000	0.00000000000000	0.00000000000000	0.00000000000000	0.00000000000000	22.69519800000000	0.00000000000000	0.00000000000000	0.00000000000000	0.00000000000000	
20.27825500000000	56.56642900000000	772.41813999999999	57.09361600000000	0.31023300000000	0.00000000000000	0.10313000000000	0.00000000000000	0.00000000000000	0.00000000000000	0.00000000000000	0.00000000000000	0.00000000000000	0.00000000000000	22.81868900000000	0.00000000000000	0.00000000000000	0.00000000000000	0.00000000000000	
20.27992100000000	55.95456300000000	774.67816600000003	57.27593100000000	0.30961900000000	0.00000000000000	0.10313100000000	0.00000000000000	0.00000000000000	0.00000000000000	0.00000000000000	0.00000000000000	0.00000000000000	0.00000000000000	22.94458400000000	0.00000000000000	0.00000000000000	0.00000000000000	0.00000000000000	
20.28159600000000	55.35175100000000	776.81414500000005	57.45854100000000	0.30904500000000	0.00000000000000	0.10313100000000	0.00000000000000	0.00000000000000	0.00000000000000	0.00000000000000	0.00000000000000	0.00000000000000	0.00000000000000	23.07229400000000	0.00000000000000	0.00000000000000	0.00000000000000	0.00000000000000	
20.28326100000000	54.75751300000000	778.82291499999997	57.64056000000000	0.30850500000000	0.00000000000000	0.10313000000000	0.00000000000000	0.00000000000000	0.00000000000000	0.00000000000000	0.00000000000000	0.00000000000000	0.00000000000000	23.20120200000000	0.00000000000000	0.00000000000000	0.00000000000000	0.00000000000000	
20.28492800000000	54.17130100000000	780.70155699999998	57.82106500000000	0.30799800000000	0.00000000000000	0.10312900000000	0.00000000000000	0.00000000000000	0.00000000000000	0.00000000000000	0.00000000000000	0.00000000000000	0.00000000000000	23.33066600000000	0.00000000000000	0.00000000000000	0.00000000000000	0.00000000000000	
20.28659500000000	53.59251100000000	782.44740800000000	57.99909900000000	0.30752000000000	0.00000000000000	0.10312700000000	0.00000000000000	0.00000000000000	0.00000000000000	0.00000000000000	0.00000000000000	0.00000000000000	0.00000000000000	23.46002400000000	0.00000000000000	0.00000000000000	0.00000000000000	0.00000000000000	
20.28826300000000	53.02048500000000	784.05807700000003	58.17368400000000	0.30706700000000	0.00000000000000	0.10312400000000	0.00000000000000	0.00000000000000	0.00000000000000	0.00000000000000	0.00000000000000	0.00000000000000	0.00000000000000	23.58859800000000	0.00000000000000	0.00000000000000	0.00000000000000	0.00000000000000	
20.28992600000000	52.45452100000000	785.53145900000004	58.34382600000000	0.30663500000000	0.00000000000000	0.10312200000000	0.00000000000000	0.00000000000000	0.00000000000000	0.00000000000000	0.00000000000000	0.00000000000000	0.00000000000000	23.71570100000000	0.00000000000000	0.00000000000000	0.00000000000000	0.00000000000000	
20.29158900000000	51.89388300000000	786.86574399999995	58.50852400000000	0.30622200000000	0.00000000000000	0.10311900000000	0.00000000000000	0.00000000000000	0.00000000000000	0.00000000000000	0.00000000000000	0.00000000000000	0.00000000000000	23.84063600000000	0.00000000000000	0.00000000000000	0.00000000000000	0.00000000000000	
20.29325700000000	51.33780300000000	788.05942800000003	58.66677600000000	0.30582300000000	0.00000000000000	0.10311600000000	0.00000000000000	0.00000000000000	0.00000000000000	0.00000000000000	0.00000000000000	0.00000000000000	0.00000000000000	23.96270700000000	0.00000000000000	0.00000000000000	0.00000000000000	0.00000000000000	
20.29492700000000	50.78549300000000	789.11132299999997	58.81758900000000	0.30543500000000	0.00000000000000	0.10311300000000	0.00000000000000	0.00000000000000	0.00000000000000	0.00000000000000	0.00000000000000	0.00000000000000	0.00000000000000	24.08122000000000	0.00000000000000	0.00000000000000	0.00000000000000	0.00000000000000	
20.29659100000000	50.23614900000000	790.02055900000005	58.95998400000000	0.30505300000000	0.00000000000000	0.10311000000000	0.00000000000000	0.00000000000000	0.00000000000000	0.00000000000000	0.00000000000000	0.00000000000000	0.00000000000000	24.19548700000000	0.00000000000000	0.00000000000000	0.00000000000000	0.00000000000000	
